<mxfile host="app.diagrams.net" modified="2024-04-17T19:43:25.064Z" agent="Mozilla/5.0 (Windows NT 10.0; Win64; x64) AppleWebKit/537.36 (KHTML, like Gecko) Chrome/123.0.0.0 Safari/537.36" etag="zLKgrU4tPcMOmDtVpXy6" version="24.2.5" type="device">
  <diagram name="Página-1" id="HauZ-AtW_O7tdhXGTgj9">
    <mxGraphModel dx="880" dy="468" grid="1" gridSize="10" guides="1" tooltips="1" connect="1" arrows="1" fold="1" page="1" pageScale="1" pageWidth="827" pageHeight="1169" math="0" shadow="0">
      <root>
        <mxCell id="0" />
        <mxCell id="1" parent="0" />
        <mxCell id="5jsPCxNuMO6BKdnt2XqL-5" style="edgeStyle=orthogonalEdgeStyle;rounded=0;orthogonalLoop=1;jettySize=auto;html=1;entryX=0;entryY=0.5;entryDx=0;entryDy=0;" edge="1" parent="1" source="5jsPCxNuMO6BKdnt2XqL-2" target="5jsPCxNuMO6BKdnt2XqL-4">
          <mxGeometry relative="1" as="geometry" />
        </mxCell>
        <mxCell id="5jsPCxNuMO6BKdnt2XqL-2" value="cliente" style="whiteSpace=wrap;html=1;align=center;" vertex="1" parent="1">
          <mxGeometry x="130" y="90" width="100" height="40" as="geometry" />
        </mxCell>
        <mxCell id="5jsPCxNuMO6BKdnt2XqL-6" style="edgeStyle=orthogonalEdgeStyle;rounded=0;orthogonalLoop=1;jettySize=auto;html=1;entryX=1;entryY=0.5;entryDx=0;entryDy=0;" edge="1" parent="1" source="5jsPCxNuMO6BKdnt2XqL-3" target="5jsPCxNuMO6BKdnt2XqL-4">
          <mxGeometry relative="1" as="geometry" />
        </mxCell>
        <mxCell id="5jsPCxNuMO6BKdnt2XqL-28" style="edgeStyle=orthogonalEdgeStyle;rounded=0;orthogonalLoop=1;jettySize=auto;html=1;entryX=0.5;entryY=0;entryDx=0;entryDy=0;" edge="1" parent="1" source="5jsPCxNuMO6BKdnt2XqL-3" target="5jsPCxNuMO6BKdnt2XqL-27">
          <mxGeometry relative="1" as="geometry" />
        </mxCell>
        <mxCell id="5jsPCxNuMO6BKdnt2XqL-3" value="compra" style="whiteSpace=wrap;html=1;align=center;" vertex="1" parent="1">
          <mxGeometry x="510" y="90" width="100" height="40" as="geometry" />
        </mxCell>
        <mxCell id="5jsPCxNuMO6BKdnt2XqL-4" value="realiza" style="shape=rhombus;perimeter=rhombusPerimeter;whiteSpace=wrap;html=1;align=center;" vertex="1" parent="1">
          <mxGeometry x="310" y="80" width="120" height="60" as="geometry" />
        </mxCell>
        <mxCell id="5jsPCxNuMO6BKdnt2XqL-8" style="edgeStyle=orthogonalEdgeStyle;rounded=0;orthogonalLoop=1;jettySize=auto;html=1;entryX=0.75;entryY=0;entryDx=0;entryDy=0;" edge="1" parent="1" source="5jsPCxNuMO6BKdnt2XqL-7" target="5jsPCxNuMO6BKdnt2XqL-3">
          <mxGeometry relative="1" as="geometry" />
        </mxCell>
        <mxCell id="5jsPCxNuMO6BKdnt2XqL-7" value="notafiscal" style="ellipse;whiteSpace=wrap;html=1;align=center;fontStyle=4;" vertex="1" parent="1">
          <mxGeometry x="570" y="10" width="100" height="40" as="geometry" />
        </mxCell>
        <mxCell id="5jsPCxNuMO6BKdnt2XqL-10" style="edgeStyle=orthogonalEdgeStyle;rounded=0;orthogonalLoop=1;jettySize=auto;html=1;entryX=1;entryY=0.5;entryDx=0;entryDy=0;" edge="1" parent="1" source="5jsPCxNuMO6BKdnt2XqL-9" target="5jsPCxNuMO6BKdnt2XqL-3">
          <mxGeometry relative="1" as="geometry" />
        </mxCell>
        <mxCell id="5jsPCxNuMO6BKdnt2XqL-9" value="data" style="ellipse;whiteSpace=wrap;html=1;align=center;" vertex="1" parent="1">
          <mxGeometry x="660" y="90" width="100" height="40" as="geometry" />
        </mxCell>
        <mxCell id="5jsPCxNuMO6BKdnt2XqL-26" style="edgeStyle=orthogonalEdgeStyle;rounded=0;orthogonalLoop=1;jettySize=auto;html=1;entryX=1;entryY=0.75;entryDx=0;entryDy=0;" edge="1" parent="1" source="5jsPCxNuMO6BKdnt2XqL-11" target="5jsPCxNuMO6BKdnt2XqL-3">
          <mxGeometry relative="1" as="geometry" />
        </mxCell>
        <mxCell id="5jsPCxNuMO6BKdnt2XqL-11" value="valor" style="ellipse;whiteSpace=wrap;html=1;align=center;" vertex="1" parent="1">
          <mxGeometry x="660" y="140" width="100" height="40" as="geometry" />
        </mxCell>
        <mxCell id="5jsPCxNuMO6BKdnt2XqL-13" value="nome" style="ellipse;whiteSpace=wrap;html=1;align=center;" vertex="1" parent="1">
          <mxGeometry x="20" y="50" width="100" height="40" as="geometry" />
        </mxCell>
        <mxCell id="5jsPCxNuMO6BKdnt2XqL-17" style="edgeStyle=orthogonalEdgeStyle;rounded=0;orthogonalLoop=1;jettySize=auto;html=1;entryX=0;entryY=0.75;entryDx=0;entryDy=0;" edge="1" parent="1" source="5jsPCxNuMO6BKdnt2XqL-15" target="5jsPCxNuMO6BKdnt2XqL-2">
          <mxGeometry relative="1" as="geometry" />
        </mxCell>
        <mxCell id="5jsPCxNuMO6BKdnt2XqL-15" value="endereço" style="ellipse;whiteSpace=wrap;html=1;align=center;" vertex="1" parent="1">
          <mxGeometry x="10" y="100" width="100" height="40" as="geometry" />
        </mxCell>
        <mxCell id="5jsPCxNuMO6BKdnt2XqL-16" style="edgeStyle=orthogonalEdgeStyle;rounded=0;orthogonalLoop=1;jettySize=auto;html=1;entryX=0.17;entryY=0;entryDx=0;entryDy=0;entryPerimeter=0;" edge="1" parent="1" source="5jsPCxNuMO6BKdnt2XqL-13" target="5jsPCxNuMO6BKdnt2XqL-2">
          <mxGeometry relative="1" as="geometry" />
        </mxCell>
        <mxCell id="5jsPCxNuMO6BKdnt2XqL-18" value="cidade" style="ellipse;whiteSpace=wrap;html=1;align=center;" vertex="1" parent="1">
          <mxGeometry x="20" y="150" width="100" height="40" as="geometry" />
        </mxCell>
        <mxCell id="5jsPCxNuMO6BKdnt2XqL-19" style="edgeStyle=orthogonalEdgeStyle;rounded=0;orthogonalLoop=1;jettySize=auto;html=1;entryX=0.15;entryY=1.025;entryDx=0;entryDy=0;entryPerimeter=0;" edge="1" parent="1" source="5jsPCxNuMO6BKdnt2XqL-18" target="5jsPCxNuMO6BKdnt2XqL-2">
          <mxGeometry relative="1" as="geometry" />
        </mxCell>
        <mxCell id="5jsPCxNuMO6BKdnt2XqL-21" style="edgeStyle=orthogonalEdgeStyle;rounded=0;orthogonalLoop=1;jettySize=auto;html=1;entryX=0.5;entryY=1;entryDx=0;entryDy=0;" edge="1" parent="1" source="5jsPCxNuMO6BKdnt2XqL-20" target="5jsPCxNuMO6BKdnt2XqL-2">
          <mxGeometry relative="1" as="geometry" />
        </mxCell>
        <mxCell id="5jsPCxNuMO6BKdnt2XqL-20" value="estado" style="ellipse;whiteSpace=wrap;html=1;align=center;" vertex="1" parent="1">
          <mxGeometry x="140" y="190" width="100" height="40" as="geometry" />
        </mxCell>
        <mxCell id="5jsPCxNuMO6BKdnt2XqL-23" style="edgeStyle=orthogonalEdgeStyle;rounded=0;orthogonalLoop=1;jettySize=auto;html=1;entryX=0.75;entryY=0;entryDx=0;entryDy=0;" edge="1" parent="1" source="5jsPCxNuMO6BKdnt2XqL-22" target="5jsPCxNuMO6BKdnt2XqL-2">
          <mxGeometry relative="1" as="geometry" />
        </mxCell>
        <mxCell id="5jsPCxNuMO6BKdnt2XqL-22" value="codigo" style="ellipse;whiteSpace=wrap;html=1;align=center;fontStyle=4;" vertex="1" parent="1">
          <mxGeometry x="150" y="20" width="100" height="40" as="geometry" />
        </mxCell>
        <mxCell id="5jsPCxNuMO6BKdnt2XqL-24" value="1" style="text;strokeColor=none;fillColor=none;spacingLeft=4;spacingRight=4;overflow=hidden;rotatable=0;points=[[0,0.5],[1,0.5]];portConstraint=eastwest;fontSize=12;whiteSpace=wrap;html=1;fontColor=#ff0000;" vertex="1" parent="1">
          <mxGeometry x="230" y="80" width="40" height="30" as="geometry" />
        </mxCell>
        <mxCell id="5jsPCxNuMO6BKdnt2XqL-25" value="N" style="text;strokeColor=none;fillColor=none;spacingLeft=4;spacingRight=4;overflow=hidden;rotatable=0;points=[[0,0.5],[1,0.5]];portConstraint=eastwest;fontSize=12;whiteSpace=wrap;html=1;fontColor=#ff0000;" vertex="1" parent="1">
          <mxGeometry x="490" y="80" width="40" height="30" as="geometry" />
        </mxCell>
        <mxCell id="5jsPCxNuMO6BKdnt2XqL-27" value="conter" style="shape=rhombus;perimeter=rhombusPerimeter;whiteSpace=wrap;html=1;align=center;" vertex="1" parent="1">
          <mxGeometry x="500" y="170" width="120" height="60" as="geometry" />
        </mxCell>
        <mxCell id="5jsPCxNuMO6BKdnt2XqL-29" value="N" style="text;strokeColor=none;fillColor=none;spacingLeft=4;spacingRight=4;overflow=hidden;rotatable=0;points=[[0,0.5],[1,0.5]];portConstraint=eastwest;fontSize=12;whiteSpace=wrap;html=1;fontColor=#ff0000;" vertex="1" parent="1">
          <mxGeometry x="570" y="130" width="40" height="30" as="geometry" />
        </mxCell>
        <mxCell id="5jsPCxNuMO6BKdnt2XqL-31" style="edgeStyle=orthogonalEdgeStyle;rounded=0;orthogonalLoop=1;jettySize=auto;html=1;entryX=0.5;entryY=1;entryDx=0;entryDy=0;" edge="1" parent="1" source="5jsPCxNuMO6BKdnt2XqL-30" target="5jsPCxNuMO6BKdnt2XqL-27">
          <mxGeometry relative="1" as="geometry" />
        </mxCell>
        <mxCell id="5jsPCxNuMO6BKdnt2XqL-40" style="edgeStyle=orthogonalEdgeStyle;rounded=0;orthogonalLoop=1;jettySize=auto;html=1;entryX=1;entryY=0.5;entryDx=0;entryDy=0;" edge="1" parent="1" source="5jsPCxNuMO6BKdnt2XqL-30" target="5jsPCxNuMO6BKdnt2XqL-39">
          <mxGeometry relative="1" as="geometry" />
        </mxCell>
        <mxCell id="5jsPCxNuMO6BKdnt2XqL-30" value="produto" style="whiteSpace=wrap;html=1;align=center;" vertex="1" parent="1">
          <mxGeometry x="510" y="270" width="100" height="40" as="geometry" />
        </mxCell>
        <mxCell id="5jsPCxNuMO6BKdnt2XqL-32" value="N" style="text;strokeColor=none;fillColor=none;spacingLeft=4;spacingRight=4;overflow=hidden;rotatable=0;points=[[0,0.5],[1,0.5]];portConstraint=eastwest;fontSize=12;whiteSpace=wrap;html=1;fontColor=#ff0000;" vertex="1" parent="1">
          <mxGeometry x="560" y="240" width="40" height="30" as="geometry" />
        </mxCell>
        <mxCell id="5jsPCxNuMO6BKdnt2XqL-34" style="edgeStyle=orthogonalEdgeStyle;rounded=0;orthogonalLoop=1;jettySize=auto;html=1;entryX=1;entryY=0.25;entryDx=0;entryDy=0;" edge="1" parent="1" source="5jsPCxNuMO6BKdnt2XqL-33" target="5jsPCxNuMO6BKdnt2XqL-30">
          <mxGeometry relative="1" as="geometry" />
        </mxCell>
        <mxCell id="5jsPCxNuMO6BKdnt2XqL-33" value="codigo" style="ellipse;whiteSpace=wrap;html=1;align=center;fontStyle=4;" vertex="1" parent="1">
          <mxGeometry x="640" y="250" width="100" height="40" as="geometry" />
        </mxCell>
        <mxCell id="5jsPCxNuMO6BKdnt2XqL-36" style="edgeStyle=orthogonalEdgeStyle;rounded=0;orthogonalLoop=1;jettySize=auto;html=1;entryX=1;entryY=0.75;entryDx=0;entryDy=0;" edge="1" parent="1" source="5jsPCxNuMO6BKdnt2XqL-35" target="5jsPCxNuMO6BKdnt2XqL-30">
          <mxGeometry relative="1" as="geometry" />
        </mxCell>
        <mxCell id="5jsPCxNuMO6BKdnt2XqL-35" value="nome" style="ellipse;whiteSpace=wrap;html=1;align=center;" vertex="1" parent="1">
          <mxGeometry x="640" y="320" width="100" height="40" as="geometry" />
        </mxCell>
        <mxCell id="5jsPCxNuMO6BKdnt2XqL-38" style="edgeStyle=orthogonalEdgeStyle;rounded=0;orthogonalLoop=1;jettySize=auto;html=1;entryX=0.75;entryY=1;entryDx=0;entryDy=0;" edge="1" parent="1" source="5jsPCxNuMO6BKdnt2XqL-37" target="5jsPCxNuMO6BKdnt2XqL-30">
          <mxGeometry relative="1" as="geometry" />
        </mxCell>
        <mxCell id="5jsPCxNuMO6BKdnt2XqL-37" value="quantidade" style="ellipse;whiteSpace=wrap;html=1;align=center;" vertex="1" parent="1">
          <mxGeometry x="550" y="360" width="100" height="40" as="geometry" />
        </mxCell>
        <mxCell id="5jsPCxNuMO6BKdnt2XqL-39" value="distribuido" style="shape=rhombus;perimeter=rhombusPerimeter;whiteSpace=wrap;html=1;align=center;" vertex="1" parent="1">
          <mxGeometry x="354" y="260" width="120" height="60" as="geometry" />
        </mxCell>
        <mxCell id="5jsPCxNuMO6BKdnt2XqL-41" value="N" style="text;strokeColor=none;fillColor=none;spacingLeft=4;spacingRight=4;overflow=hidden;rotatable=0;points=[[0,0.5],[1,0.5]];portConstraint=eastwest;fontSize=12;whiteSpace=wrap;html=1;fontColor=#ff0000;" vertex="1" parent="1">
          <mxGeometry x="490" y="260" width="40" height="30" as="geometry" />
        </mxCell>
        <mxCell id="5jsPCxNuMO6BKdnt2XqL-43" style="edgeStyle=orthogonalEdgeStyle;rounded=0;orthogonalLoop=1;jettySize=auto;html=1;entryX=0;entryY=0.5;entryDx=0;entryDy=0;" edge="1" parent="1" source="5jsPCxNuMO6BKdnt2XqL-42" target="5jsPCxNuMO6BKdnt2XqL-39">
          <mxGeometry relative="1" as="geometry" />
        </mxCell>
        <mxCell id="5jsPCxNuMO6BKdnt2XqL-42" value="fabricante" style="whiteSpace=wrap;html=1;align=center;" vertex="1" parent="1">
          <mxGeometry x="220" y="270" width="100" height="40" as="geometry" />
        </mxCell>
        <mxCell id="5jsPCxNuMO6BKdnt2XqL-44" value="N" style="text;strokeColor=none;fillColor=none;spacingLeft=4;spacingRight=4;overflow=hidden;rotatable=0;points=[[0,0.5],[1,0.5]];portConstraint=eastwest;fontSize=12;whiteSpace=wrap;html=1;fontColor=#ff0000;" vertex="1" parent="1">
          <mxGeometry x="320" y="260" width="40" height="30" as="geometry" />
        </mxCell>
        <mxCell id="5jsPCxNuMO6BKdnt2XqL-46" style="edgeStyle=orthogonalEdgeStyle;rounded=0;orthogonalLoop=1;jettySize=auto;html=1;entryX=0;entryY=0.75;entryDx=0;entryDy=0;" edge="1" parent="1" source="5jsPCxNuMO6BKdnt2XqL-45" target="5jsPCxNuMO6BKdnt2XqL-42">
          <mxGeometry relative="1" as="geometry" />
        </mxCell>
        <mxCell id="5jsPCxNuMO6BKdnt2XqL-45" value="nome" style="ellipse;whiteSpace=wrap;html=1;align=center;" vertex="1" parent="1">
          <mxGeometry x="80" y="300" width="100" height="40" as="geometry" />
        </mxCell>
        <mxCell id="5jsPCxNuMO6BKdnt2XqL-47" value="cnpj" style="ellipse;whiteSpace=wrap;html=1;align=center;fontStyle=4;" vertex="1" parent="1">
          <mxGeometry x="60" y="240" width="100" height="40" as="geometry" />
        </mxCell>
        <mxCell id="5jsPCxNuMO6BKdnt2XqL-48" style="edgeStyle=orthogonalEdgeStyle;rounded=0;orthogonalLoop=1;jettySize=auto;html=1;entryX=0.12;entryY=-0.025;entryDx=0;entryDy=0;entryPerimeter=0;" edge="1" parent="1" source="5jsPCxNuMO6BKdnt2XqL-47" target="5jsPCxNuMO6BKdnt2XqL-42">
          <mxGeometry relative="1" as="geometry" />
        </mxCell>
        <mxCell id="5jsPCxNuMO6BKdnt2XqL-50" style="edgeStyle=orthogonalEdgeStyle;rounded=0;orthogonalLoop=1;jettySize=auto;html=1;entryX=0.5;entryY=1;entryDx=0;entryDy=0;" edge="1" parent="1" source="5jsPCxNuMO6BKdnt2XqL-49" target="5jsPCxNuMO6BKdnt2XqL-42">
          <mxGeometry relative="1" as="geometry" />
        </mxCell>
        <mxCell id="5jsPCxNuMO6BKdnt2XqL-49" value="telefone" style="ellipse;shape=doubleEllipse;margin=3;whiteSpace=wrap;html=1;align=center;" vertex="1" parent="1">
          <mxGeometry x="190" y="350" width="100" height="40" as="geometry" />
        </mxCell>
      </root>
    </mxGraphModel>
  </diagram>
</mxfile>
